<svg width="156" height="92" viewBox="0 0 156 92" fill="none" xmlns="http://www.w3.org/2000/svg">
<circle cx="109.5" cy="45.5" r="9.5" fill="black"/>
<circle cx="45.5" cy="45.5" r="9.5" fill="black"/>
<path d="M23.9075 24.5903C23.6526 24.1476 24.1476 23.6526 24.5903 23.9075L45.7125 36.0683C45.8669 36.1572 46.057 36.1572 46.2114 36.0683L67.3336 23.9075C67.7763 23.6526 68.2713 24.1476 68.0163 24.5903L55.8556 45.7125C55.7667 45.8669 55.7667 46.057 55.8556 46.2114L68.0164 67.3336C68.2713 67.7763 67.7763 68.2713 67.3336 68.0164L46.2114 55.8556C46.057 55.7667 45.8669 55.7667 45.7125 55.8556L24.5903 68.0164C24.1476 68.2713 23.6526 67.7763 23.9075 67.3336L36.0683 46.2114C36.1572 46.057 36.1572 45.8669 36.0683 45.7125L23.9075 24.5903Z" fill="black"/>
<path d="M87.9075 24.5903C87.6526 24.1476 88.1476 23.6526 88.5903 23.9075L109.712 36.0683C109.867 36.1572 110.057 36.1572 110.211 36.0683L131.334 23.9075C131.776 23.6526 132.271 24.1476 132.016 24.5903L119.856 45.7125C119.767 45.8669 119.767 46.057 119.856 46.2114L132.016 67.3336C132.271 67.7763 131.776 68.2713 131.334 68.0164L110.211 55.8556C110.057 55.7667 109.867 55.7667 109.712 55.8556L88.5903 68.0164C88.1476 68.2713 87.6526 67.7763 87.9075 67.3336L100.068 46.2114C100.157 46.057 100.157 45.8669 100.068 45.7125L87.9075 24.5903Z" fill="black"/>
</svg>
